<svg width="196" height="260" viewBox="0 0 196 260" fill="none" xmlns="http://www.w3.org/2000/svg">
<rect x="16.3711" width="260" height="16" rx="8" transform="rotate(90 16.3711 0)" fill="#75B9BE"/>
<rect x="162.924" y="10" width="4" height="128.553" rx="2" transform="rotate(90 162.924 10)" fill="#75B9BE"/>
<path d="M164.615 4L173.072 11.5L164.615 19" stroke="#75B9BE" stroke-width="3"/>
<path d="M174.765 4L183.223 11.5L174.765 19" stroke="#75B9BE" stroke-width="3"/>
<path d="M184.914 4L193.371 11.5L184.914 19" stroke="#75B9BE" stroke-width="3"/>
<path d="M98.6485 23.31C92.6263 23.31 87.7442 18.4277 87.7442 12.405C87.7442 6.38225 92.6263 1.5 98.6485 1.5C104.671 1.5 109.553 6.38225 109.553 12.405C109.553 18.4277 104.671 23.31 98.6485 23.31Z" fill="#F5F5F5" stroke="#75B9BE" stroke-width="3"/>
</svg>
