<svg width="351" height="52" viewBox="0 0 351 52" fill="none" xmlns="http://www.w3.org/2000/svg">
<path d="M3.01 41V10.9H17.243C20.5683 10.9 23.4923 11.5163 26.015 12.749C28.5377 13.9817 30.5013 15.716 31.906 17.952C33.3393 20.188 34.056 22.854 34.056 25.95C34.056 29.0173 33.3393 31.6833 31.906 33.948C30.5013 36.184 28.5377 37.9183 26.015 39.151C23.4923 40.3837 20.5683 41 17.243 41H3.01ZM11.524 34.206H16.899C18.619 34.206 20.1097 33.8907 21.371 33.26C22.661 32.6007 23.6643 31.6547 24.381 30.422C25.0977 29.1607 25.456 27.67 25.456 25.95C25.456 24.2013 25.0977 22.7107 24.381 21.478C23.6643 20.2453 22.661 19.3137 21.371 18.683C20.1097 18.0237 18.619 17.694 16.899 17.694H11.524V34.206ZM46.3614 22.553H60.3364V28.917H46.3614V22.553ZM46.9634 34.421H62.7014V41H38.5354V10.9H62.1424V17.479H46.9634V34.421ZM76.2511 41L63.3941 10.9H72.5961L83.4321 36.958H78.0141L89.1081 10.9H97.5361L84.6361 41H76.2511ZM107.124 22.553H121.099V28.917H107.124V22.553ZM107.726 34.421H123.464V41H99.2981V10.9H122.905V17.479H107.726V34.421ZM128.189 41V10.9H136.703V34.249H151.065V41H128.189ZM169.151 41.602C166.743 41.602 164.521 41.215 162.486 40.441C160.451 39.667 158.673 38.5777 157.154 37.173C155.663 35.7397 154.502 34.077 153.671 32.185C152.84 30.293 152.424 28.2147 152.424 25.95C152.424 23.6853 152.84 21.607 153.671 19.715C154.502 17.823 155.663 16.1747 157.154 14.77C158.673 13.3367 160.451 12.233 162.486 11.459C164.521 10.685 166.743 10.298 169.151 10.298C171.588 10.298 173.809 10.685 175.816 11.459C177.851 12.233 179.614 13.3367 181.105 14.77C182.596 16.1747 183.757 17.823 184.588 19.715C185.448 21.607 185.878 23.6853 185.878 25.95C185.878 28.2147 185.448 30.3073 184.588 32.228C183.757 34.12 182.596 35.7683 181.105 37.173C179.614 38.5777 177.851 39.667 175.816 40.441C173.809 41.215 171.588 41.602 169.151 41.602ZM169.151 34.55C170.298 34.55 171.358 34.3493 172.333 33.948C173.336 33.5467 174.196 32.9733 174.913 32.228C175.658 31.454 176.232 30.5367 176.633 29.476C177.063 28.4153 177.278 27.24 177.278 25.95C177.278 24.6313 177.063 23.456 176.633 22.424C176.232 21.3633 175.658 20.4603 174.913 19.715C174.196 18.941 173.336 18.3533 172.333 17.952C171.358 17.5507 170.298 17.35 169.151 17.35C168.004 17.35 166.929 17.5507 165.926 17.952C164.951 18.3533 164.091 18.941 163.346 19.715C162.629 20.4603 162.056 21.3633 161.626 22.424C161.225 23.456 161.024 24.6313 161.024 25.95C161.024 27.24 161.225 28.4153 161.626 29.476C162.056 30.5367 162.629 31.454 163.346 32.228C164.091 32.9733 164.951 33.5467 165.926 33.948C166.929 34.3493 168.004 34.55 169.151 34.55ZM190.337 41V10.9H204.097C206.849 10.9 209.214 11.3443 211.192 12.233C213.199 13.1217 214.747 14.4117 215.836 16.103C216.925 17.7657 217.47 19.7437 217.47 22.037C217.47 24.3017 216.925 26.2653 215.836 27.928C214.747 29.5907 213.199 30.8807 211.192 31.798C209.214 32.6867 206.849 33.131 204.097 33.131H195.067L198.851 29.433V41H190.337ZM198.851 30.336L195.067 26.423H203.581C205.358 26.423 206.677 26.036 207.537 25.262C208.426 24.488 208.87 23.413 208.87 22.037C208.87 20.6323 208.426 19.543 207.537 18.769C206.677 17.995 205.358 17.608 203.581 17.608H195.067L198.851 13.695V30.336ZM221.621 41V10.9H228.63L241.1 31.368H237.402L249.528 10.9H256.537L256.623 41H248.797L248.711 22.811H250.044L240.971 38.033H237.187L227.856 22.811H229.49V41H221.621ZM270.474 22.553H284.449V28.917H270.474V22.553ZM271.076 34.421H286.814V41H262.648V10.9H286.255V17.479H271.076V34.421ZM291.538 41V10.9H298.547L315.145 30.938H311.834V10.9H320.176V41H313.167L296.569 20.962H299.88V41H291.538ZM332.589 41V17.651H323.344V10.9H350.305V17.651H341.103V41H332.589Z" fill="#FF6A3A"/>
<rect x="6" y="22" width="335" height="7" fill="#FF6A3A"/>
</svg>
