<svg width="86" height="92" viewBox="0 0 86 92" fill="none" xmlns="http://www.w3.org/2000/svg">
<path d="M79.3574 91.5004H6.75529C6.16681 91.5004 5.60207 91.244 5.18558 90.7877C4.76909 90.332 4.53516 89.7132 4.53516 89.0676V84.3372C4.53516 83.7653 4.95822 83.3017 5.48015 83.3017C6.00208 83.3017 6.42449 83.7653 6.42449 84.3372V89.0684V89.0677C6.42449 89.2619 6.56881 89.42 6.74607 89.42H79.3566C79.4422 89.42 79.5239 89.3825 79.5839 89.3168C79.6439 89.2503 79.6782 89.1608 79.6782 89.0676V31.448C79.6729 31.2559 79.5319 31.1014 79.3566 31.0964H77.3349C76.8136 31.0964 76.3905 30.6328 76.3905 30.0609C76.3905 29.489 76.8136 29.0254 77.3349 29.0254H79.3566C80.583 29.0254 81.5767 30.115 81.5767 31.4581V89.0666C81.5767 89.7122 81.3428 90.331 80.9269 90.7867C80.5104 91.243 79.9457 91.4994 79.3566 91.4994L79.3574 91.5004Z" fill="#75B9BE"/>
<path d="M73.7363 85.3832H2.22062C1.63149 85.3832 1.0674 85.1268 0.650914 84.6704C0.234426 84.2141 0.000488281 83.5953 0.000488281 82.9504V24.0054C0.000488281 22.6601 0.992921 21.5682 2.22059 21.5625H18.5075C19.0294 21.5625 19.4525 22.0261 19.4525 22.598C19.4525 23.1692 19.0294 23.6328 18.5075 23.6328H2.22059C2.13031 23.6299 2.04332 23.6689 1.98006 23.7396C1.91745 23.8104 1.8845 23.9072 1.88977 24.0054V82.9504C1.89505 83.1403 2.03739 83.292 2.21135 83.292H73.727H73.7263C73.9003 83.292 74.0426 83.1403 74.0479 82.9504V72.1631C74.0479 71.592 74.4703 71.1284 74.9922 71.1284C75.5142 71.1284 75.9372 71.5919 75.9372 72.1631V82.9504C75.9372 84.2856 74.9547 85.3716 73.7355 85.3831L73.7363 85.3832Z" fill="#75B9BE"/>
<path d="M75.0031 61.2737C74.4812 61.2737 74.0581 60.8101 74.0581 60.2382V40.7562C74.0581 40.1843 74.4812 39.7207 75.0031 39.7207C75.5244 39.7207 75.9474 40.1843 75.9474 40.7562V60.2382C75.9474 60.5133 75.8479 60.7761 75.6707 60.9704C75.4934 61.1646 75.2535 61.2737 75.0031 61.2737Z" fill="#75B9BE"/>
<path d="M43.0509 23.657H25.2529C24.731 23.657 24.3086 23.1932 24.3086 22.6211C24.3086 22.0497 24.731 21.5859 25.2529 21.5859H43.0509C43.5728 21.5859 43.9959 22.0497 43.9959 22.6211C43.9959 23.1932 43.5728 23.657 43.0509 23.657Z" fill="#75B9BE"/>
<path d="M49.1259 38.2722H0.944994C0.423068 38.2722 0 37.8092 0 37.2371C0 36.6649 0.423068 36.2012 0.944994 36.2012H49.1259C49.6479 36.2012 50.0709 36.6649 50.0709 37.2371C50.0709 37.8092 49.6479 38.2722 49.1259 38.2722Z" fill="#75B9BE"/>
<path d="M9.95706 30.063C9.95706 31.0234 9.24667 31.8018 8.37022 31.8018C7.49377 31.8018 6.78271 31.0234 6.78271 30.063C6.78271 29.1026 7.49376 28.3242 8.37022 28.3242C9.24667 28.3242 9.95706 29.1026 9.95706 30.063Z" fill="#75B9BE"/>
<path d="M15.8242 30.063C15.8242 31.0234 15.1139 31.8018 14.2367 31.8018C13.3603 31.8018 12.6499 31.0234 12.6499 30.063C12.6499 29.1026 13.3603 28.3242 14.2367 28.3242C15.1138 28.3242 15.8242 29.1026 15.8242 30.063Z" fill="#75B9BE"/>
<path d="M21.6817 30.063C21.6817 31.0234 20.9713 31.8018 20.0948 31.8018C19.2184 31.8018 18.5073 31.0234 18.5073 30.063C18.5073 29.1026 19.2184 28.3242 20.0948 28.3242C20.9713 28.3242 21.6817 29.1026 21.6817 30.063Z" fill="#75B9BE"/>
<path d="M12.9614 66.4494C12.7103 66.4508 12.4691 66.3432 12.2905 66.149C12.1086 65.9547 12.0065 65.6875 12.0065 65.4088C12.0065 65.1301 12.1086 64.8636 12.2905 64.6687L18.7242 57.6297C18.7901 57.5503 18.7901 57.429 18.7242 57.3503L12.2814 50.2795C12.0857 50.0874 11.9723 49.8145 11.9684 49.5264C11.9644 49.2383 12.0699 48.9617 12.2596 48.7624C12.4488 48.5631 12.7058 48.4599 12.9681 48.4765C13.2303 48.4931 13.4742 48.6288 13.6415 48.8512L20.0653 55.8902H20.066C20.8779 56.7834 20.8779 58.2277 20.066 59.1202L13.6422 66.17H13.6415C13.4577 66.3585 13.2131 66.4595 12.9614 66.4494Z" fill="#75B9BE"/>
<path d="M38.3748 66.4499H25.2524C24.7305 66.4499 24.3081 65.9862 24.3081 65.4141C24.3081 64.8427 24.7305 64.3789 25.2524 64.3789H38.3748C38.8968 64.3789 39.3192 64.8427 39.3192 65.4141C39.3192 65.9862 38.8968 66.4499 38.3748 66.4499Z" fill="#75B9BE"/>
<path d="M64.535 46.4699H64.4783L62.2957 46.4179H62.2964C61.6472 46.4042 61.0298 46.1067 60.583 45.5911C60.1356 45.0755 59.895 44.3852 59.9155 43.6747L59.9722 40.5689C59.9708 40.2996 59.8041 40.0656 59.5655 39.9999C58.5092 39.6764 57.4865 39.2323 56.5144 38.6749C56.2976 38.5521 56.034 38.5983 55.8627 38.7882L53.9734 41.169C53.5437 41.694 52.9427 42.0103 52.3009 42.0492C51.6564 42.0947 51.0225 41.8514 50.544 41.3763L48.8623 39.7407C48.3819 39.2684 48.0919 38.6063 48.0564 37.8994C48.0208 37.1932 48.2429 36.5 48.6732 35.9728L50.5624 33.6022C50.7127 33.3921 50.7127 33.0975 50.5624 32.888C50.4115 32.6396 50.26 32.3811 50.1183 32.1219C49.9806 31.8836 49.9371 31.5941 49.9984 31.3204C50.0596 31.046 50.2204 30.8113 50.4432 30.6705C50.6659 30.529 50.9321 30.4936 51.1793 30.5723C51.4264 30.651 51.634 30.8366 51.7532 31.0864C51.8758 31.3139 52.0083 31.5312 52.1407 31.7493H52.1401C52.4452 32.2403 52.5915 32.8296 52.5559 33.4224C52.5196 34.0152 52.3035 34.5778 51.9417 35.0204L50.0715 37.3599C49.8659 37.586 49.8659 37.9513 50.0715 38.1773L51.7058 39.7818C51.8119 39.8786 51.9456 39.9299 52.0834 39.927C52.2251 39.9161 52.3569 39.8454 52.4517 39.7306L54.3884 37.36C54.7529 36.9209 55.2392 36.6256 55.7723 36.5209C56.3054 36.4162 56.855 36.5072 57.3361 36.7801C58.1895 37.2719 59.089 37.6603 60.0194 37.9398C60.5545 38.0828 61.029 38.4207 61.3657 38.8987C61.7018 39.3768 61.8804 39.9653 61.8705 40.569L61.8139 43.7468C61.8112 43.9021 61.8659 44.0515 61.9654 44.1613C62.0623 44.2703 62.1948 44.3339 62.3338 44.3368H64.5165C64.7992 44.3368 65.0305 44.0884 65.0357 43.7779L65.1016 40.5898C65.1135 39.9963 65.3059 39.4251 65.6486 38.9651C65.9906 38.5059 66.4631 38.1845 66.9916 38.0531C68.272 37.7224 69.5031 37.1924 70.6477 36.4797C71.1189 36.1865 71.6665 36.0724 72.2036 36.1569C72.7406 36.2414 73.2362 36.5187 73.6138 36.9454L75.6264 39.233V39.2337C75.7206 39.3471 75.8544 39.4114 75.9948 39.4092C76.1345 39.4171 76.2715 39.3608 76.3724 39.254L77.95 37.5874C78.0541 37.4841 78.1121 37.3375 78.1108 37.1837C78.1128 37.0314 78.062 36.8833 77.9691 36.77L75.9565 34.4824V34.4816C75.5928 34.0527 75.3674 33.5032 75.316 32.9198C75.2652 32.3356 75.3904 31.75 75.6731 31.2524C76.3638 30.0256 76.8923 28.6977 77.2415 27.3084C77.3852 26.7444 77.6929 26.2476 78.1173 25.8931C78.5417 25.5378 79.0603 25.3443 79.5941 25.3414L82.4943 25.4035C82.6333 25.4049 82.7684 25.35 82.8719 25.2482C82.9747 25.1392 83.032 24.9897 83.0326 24.8337V22.4421V22.4428C83.0392 22.289 82.9885 22.1395 82.891 22.0283C82.7967 21.9149 82.6629 21.8507 82.5226 21.8528L79.6225 21.7907V21.79C79.0801 21.7763 78.5582 21.5655 78.1378 21.1907C77.7167 20.8159 77.4214 20.2982 77.2982 19.7198C77.0214 18.3254 76.5661 16.9802 75.9473 15.7245C75.6791 15.2075 75.5756 14.6074 75.6527 14.0196C75.7298 13.4311 75.9829 12.8874 76.3723 12.4736L78.46 10.2683V10.269C78.5628 10.1636 78.6241 10.0184 78.6307 9.86462C78.6293 9.71082 78.5753 9.56279 78.4791 9.45086L76.9674 7.72216C76.8659 7.61385 76.7315 7.55102 76.5898 7.54597C76.4474 7.53442 76.3077 7.59579 76.2122 7.71205L74.1245 9.91739L74.1238 9.91666C73.7311 10.3246 73.2263 10.5788 72.6879 10.6387C72.1489 10.6987 71.6078 10.5615 71.1479 10.2481C69.932 9.42201 68.6062 8.80751 67.2183 8.42624C66.6852 8.29338 66.2094 7.96771 65.8667 7.50196C65.5234 7.03622 65.3343 6.4571 65.3283 5.85848V2.64956C65.3237 2.33183 65.0898 2.07549 64.7998 2.06973H62.6364C62.3465 2.0755 62.1125 2.33185 62.1073 2.64956V5.83833C62.1204 6.43911 61.9471 7.0269 61.6156 7.50636C61.2848 7.98584 60.815 8.3281 60.2838 8.47758C59.1596 8.79963 58.0776 9.27621 57.062 9.89577C56.5888 10.1853 56.0412 10.2929 55.5061 10.2034C54.9704 10.1131 54.4774 9.83008 54.1051 9.39897L52.1025 7.09049C51.8962 6.86593 51.5628 6.86593 51.3558 7.09049L49.769 8.73614V8.73686C49.6695 8.84445 49.6089 8.98743 49.599 9.14051C49.595 9.29576 49.6497 9.44523 49.7499 9.55427L51.7433 11.8729V11.8736C52.1129 12.3062 52.3403 12.8622 52.3897 13.4521C52.4398 14.0428 52.3087 14.6342 52.0174 15.1339C51.2306 16.5016 50.6474 17.997 50.2889 19.5647C50.1584 20.1388 49.8572 20.6486 49.4329 21.0147C49.0085 21.3801 48.4852 21.5801 47.9455 21.5837H45.0361C44.7435 21.5837 44.507 21.8429 44.507 22.1635V24.5652C44.5122 24.8807 44.7475 25.1342 45.0361 25.1342H47.9555C48.4926 25.132 49.0158 25.3248 49.4428 25.683C49.8698 26.0404 50.1776 26.5423 50.3173 27.1113C50.4214 27.5251 50.5348 27.9396 50.6666 28.3331C50.7476 28.5938 50.7298 28.879 50.6184 29.126C50.5064 29.3729 50.31 29.5607 50.0715 29.648C49.8349 29.7405 49.574 29.726 49.3473 29.6076C49.1199 29.4892 48.9453 29.2762 48.8622 29.0162C48.71 28.5548 48.5808 28.0847 48.4748 27.6081C48.4181 27.3431 48.2032 27.1554 47.9555 27.1532H45.0454C44.4022 27.1503 43.7861 26.8687 43.3314 26.3705C42.8767 25.8722 42.6197 25.197 42.6177 24.4923V22.1217C42.6151 21.4155 42.8681 20.7367 43.3215 20.2342C43.7749 19.7316 44.391 19.4464 45.0362 19.4406H47.9456C48.1874 19.4348 48.3963 19.2528 48.4556 18.9958C48.8616 17.2108 49.5245 15.5088 50.4207 13.9542C50.5544 13.7303 50.5314 13.435 50.364 13.24L48.3706 10.9316C47.9271 10.4174 47.6892 9.73071 47.7083 9.02384C47.7281 8.31691 48.0036 7.64753 48.4747 7.16382L50.0715 5.50734C50.5407 5.02281 51.166 4.76141 51.8106 4.78091C52.4551 4.80041 53.066 5.09864 53.5101 5.6106L55.5035 7.92925V7.92997C55.6761 8.11915 55.9437 8.15744 56.1552 8.02312C57.3091 7.32196 58.5368 6.77967 59.8113 6.4078C60.0479 6.34642 60.2159 6.11535 60.2179 5.8489V2.67104C60.2126 1.96484 60.465 1.28534 60.919 0.783475C61.3731 0.282349 61.9912 0 62.6364 0H64.8375C65.4787 0.00288838 66.0935 0.282331 66.5482 0.778411C67.003 1.27449 67.2606 1.94748 67.2652 2.65008V5.83884C67.2718 6.10674 67.4425 6.33637 67.681 6.39774C69.2593 6.831 70.7664 7.52998 72.1496 8.46794C72.3545 8.61092 72.6221 8.58564 72.8013 8.40584L74.8989 6.19053C75.3668 5.71033 75.9863 5.44678 76.6275 5.45543C77.2752 5.46409 77.8914 5.75942 78.3376 6.27356L79.8493 8.00226C80.2974 8.51062 80.5425 9.19444 80.53 9.90129C80.5175 10.6082 80.2486 11.2805 79.7834 11.77L77.6858 13.9644C77.5158 14.1565 77.4848 14.4497 77.61 14.6793C78.3467 16.1047 78.8937 17.6385 79.235 19.2343C79.2838 19.5015 79.496 19.695 79.7451 19.7001L82.6452 19.7622C83.2904 19.7781 83.9026 20.0741 84.3494 20.5839C84.7956 21.0944 85.0387 21.7775 85.0262 22.4844V24.8761C85.0183 25.5852 84.7495 26.2611 84.2796 26.7492C83.8137 27.2345 83.1936 27.5017 82.5511 27.4952L79.6509 27.4331C79.4104 27.4396 79.2009 27.615 79.131 27.8678C78.7257 29.4456 78.1214 30.954 77.3359 32.3498C77.2008 32.5773 77.2245 32.8762 77.3932 33.0748L79.3577 35.3934C79.8038 35.9018 80.0483 36.5827 80.0385 37.2875C80.022 37.9951 79.7544 38.6674 79.2918 39.1614L77.7142 40.8178C77.2443 41.3038 76.6216 41.571 75.9757 41.563C75.3319 41.5515 74.719 41.2569 74.2756 40.7456L72.263 38.4471C72.0837 38.2623 71.8149 38.229 71.602 38.3641C70.3005 39.1714 68.9008 39.7707 67.445 40.1448C67.2039 40.1975 67.0279 40.4249 67.02 40.6936L66.9633 43.8816V43.8823C66.9436 44.5741 66.6793 45.2305 66.2266 45.7135C65.7732 46.1966 65.1669 46.4674 64.535 46.4703V46.4699Z" fill="#75B9BE"/>
<path d="M63.8162 30.021C61.6614 29.9286 59.7048 28.6151 58.6511 26.5535C57.5974 24.4919 57.5974 21.9783 58.6511 19.9167C59.7049 17.8545 61.6614 16.5416 63.8162 16.4492C65.4532 16.4492 67.0236 17.159 68.1847 18.4235C69.3459 19.6886 70.0035 21.405 70.0135 23.1987C70.0161 24.9981 69.369 26.7254 68.2131 28.0035C67.0572 29.2823 65.4869 30.0073 63.8446 30.021H63.8162ZM63.8162 18.5303C62.6782 18.5325 61.5889 19.0365 60.7928 19.9276C59.9901 20.8085 59.5407 22.003 59.5427 23.2478C59.544 24.4927 59.998 25.6857 60.8027 26.5637C61.6079 27.4425 62.6985 27.9335 63.8347 27.9299C64.9728 27.9241 66.0614 27.4237 66.8621 26.5385C67.6627 25.6532 68.1102 24.4559 68.1049 23.2096C68.0977 21.9668 67.643 20.7791 66.8397 19.9023C66.0364 19.0257 64.9497 18.5325 63.8162 18.5303Z" fill="#75B9BE"/>
<path d="M75.0031 68.9535C74.4812 68.9535 74.0581 68.4899 74.0581 67.9187V64.813C74.0581 64.241 74.4812 63.7775 75.0031 63.7775C75.5244 63.7775 75.9474 64.241 75.9474 64.813V67.9187C75.9474 68.1931 75.8479 68.4567 75.6707 68.6502C75.4934 68.8444 75.2535 68.9535 75.0031 68.9535Z" fill="#75B9BE"/>
</svg>
